<svg xmlns="http://www.w3.org/2000/svg" width="128" height="128" viewBox="0 0 128 128">
  <rect width="128" height="128" rx="28" fill="url(#g)"/>
  <path d="M86 86.5c-6.4 6.2-14.2 9.3-23.4 9.3-7.9 0-14.5-2.2-19.8-6.5C37.5 85 35 79.6 35 73.2c0-6 2.1-10.8 6.4-14.4 4.3-3.6 10.5-5.9 18.6-6.8l12.5-1.4c2.9-.3 5.1-1.1 6.5-2.4 1.5-1.3 2.2-3.2 2.2-5.5 0-3.3-1.3-5.9-4-7.8-2.7-2-6.6-3-11.7-3-5.3 0-9.5 1.1-12.6 3.2-3.1 2.1-5.2 5-6.1 8.7H37.2c.6-6.5 3.5-11.8 8.7-15.8 5.2-4 12.1-6 20.7-6 8.2 0 14.7 1.9 19.6 5.6 4.9 3.7 7.4 8.8 7.4 15.2v32.2c0 3.3.4 6.5 1.3 9.5.9 3 2.1 5.5 3.7 7.4v1.2h-12c-1.3-1.7-2.3-3.9-3-6.5-.7-2.6-1.1-5.1-1.1-7.4Zm-.9-24.5c-1.6 1.2-3.9 2.1-7 2.5l-13.3 1.7c-6.1.8-10.7 2.2-13.8 4.2-3.1 2-4.7 5-4.7 9.1 0 3.8 1.4 6.9 4.3 9.2 2.9 2.3 6.7 3.5 11.5 3.5 6.6 0 11.9-1.8 15.9-5.3 4-3.6 6-8.2 6-14V62Z" fill="#fff"/>
  <defs>
    <linearGradient id="g" x1="0" y1="0" x2="120" y2="128" gradientUnits="userSpaceOnUse">
      <stop stop-color="#2563eb"/>
      <stop offset="1" stop-color="#0891b2"/>
    </linearGradient>
  </defs>
</svg>
